<svg width="56" height="48" viewBox="0 0 56 48" fill="none" xmlns="http://www.w3.org/2000/svg">
    <g clip-path="url(#clip0_31_366)">
        <path d="M0 4C0 1.7875 1.7875 0 4 0H52C54.2125 0 56 1.7875 56 4C56 6.2125 54.2125 8 52 8H4C1.7875 8 0 6.2125 0 4ZM0 24C0 21.7875 1.7875 20 4 20H52C54.2125 20 56 21.7875 56 24C56 26.2125 54.2125 28 52 28H4C1.7875 28 0 26.2125 0 24ZM56 44C56 46.2125 54.2125 48 52 48H4C1.7875 48 0 46.2125 0 44C0 41.7875 1.7875 40 4 40H52C54.2125 40 56 41.7875 56 44Z"
              fill="black"/>
    </g>
    <defs>
        <clipPath id="clip0_31_366">
            <rect width="56" height="48" fill="white"/>
        </clipPath>
    </defs>
</svg>
