<svg width="54" height="48" viewBox="0 0 54 48" fill="none" xmlns="http://www.w3.org/2000/svg">
    <g clip-path="url(#clip0_31_365)">
        <path d="M53.5421 2.25C53.5421 1.00312 52.5389 0 51.2921 0H47.0264C44.9639 0 43.1358 1.2 42.2827 3H3.75143C1.2858 3 -0.514198 5.34375 0.132675 7.725L3.97643 22.0031C4.7733 24.9469 7.44518 27 10.4921 27H37.5389L37.0327 29.6719C36.8264 30.7313 35.8983 31.5 34.8202 31.5H7.79205C6.54518 31.5 5.54205 32.5031 5.54205 33.75C5.54205 34.9969 6.54518 36 7.79205 36H34.8202C38.0639 36 40.8483 33.6937 41.4483 30.5156L46.2858 5.10938C46.3514 4.75313 46.6608 4.5 47.0264 4.5H51.2921C52.5389 4.5 53.5421 3.49688 53.5421 2.25ZM41.5421 43.5C41.5421 42.909 41.4257 42.3239 41.1995 41.7779C40.9734 41.232 40.6419 40.7359 40.224 40.318C39.8062 39.9002 39.3101 39.5687 38.7641 39.3425C38.2182 39.1164 37.633 39 37.0421 39C36.4511 39 35.8659 39.1164 35.32 39.3425C34.774 39.5687 34.2779 39.9002 33.8601 40.318C33.4422 40.7359 33.1107 41.232 32.8846 41.7779C32.6584 42.3239 32.5421 42.909 32.5421 43.5C32.5421 44.091 32.6584 44.6761 32.8846 45.2221C33.1107 45.768 33.4422 46.2641 33.8601 46.682C34.2779 47.0998 34.774 47.4313 35.32 47.6575C35.8659 47.8836 36.4511 48 37.0421 48C37.633 48 38.2182 47.8836 38.7641 47.6575C39.3101 47.4313 39.8062 47.0998 40.224 46.682C40.6419 46.2641 40.9734 45.768 41.1995 45.2221C41.4257 44.6761 41.5421 44.091 41.5421 43.5ZM10.0421 39C8.84858 39 7.70399 39.4741 6.86007 40.318C6.01616 41.1619 5.54205 42.3065 5.54205 43.5C5.54205 44.6935 6.01616 45.8381 6.86007 46.682C7.70399 47.5259 8.84858 48 10.0421 48C11.2355 48 12.3801 47.5259 13.224 46.682C14.0679 45.8381 14.5421 44.6935 14.5421 43.5C14.5421 42.3065 14.0679 41.1619 13.224 40.318C12.3801 39.4741 11.2355 39 10.0421 39Z"
              fill="black"/>
    </g>
    <defs>
        <clipPath id="clip0_31_365">
            <rect width="54" height="48" fill="white"/>
        </clipPath>
    </defs>
</svg>
