<svg width="50" height="64" viewBox="0 0 50 64" fill="none" xmlns="http://www.w3.org/2000/svg">
    <g clip-path="url(#clip0_12_777)">
        <path d="M39.2431 64H9.81078C9.14971 64 8.58444 63.5497 8.42156 62.9173L0.699405 32.5557C0.594016 32.1245 0.689825 31.6742 0.958089 31.3197C1.22635 30.9652 1.64791 30.764 2.08863 30.764H46.9653C47.406 30.764 47.8276 30.9652 48.0958 31.3197C48.3641 31.6742 48.4599 32.1245 48.3545 32.5557L40.6323 62.9173C40.479 63.5592 39.9042 64 39.2431 64ZM10.9317 61.1257H38.1317L45.1258 33.6383H3.93773L10.9317 61.1257Z"
              fill="black"/>
        <path d="M2.0024 33.8683C1.40839 33.8683 0.852702 33.4947 0.641924 32.9006C0.229947 31.7318 0.0287476 30.5054 0.0287476 29.2503C0.0287476 26.8168 0.804798 24.5078 2.27067 22.5725C3.48743 20.9725 5.13533 19.727 6.98444 18.9797C7.3006 15.9234 8.67067 13.0971 10.8934 10.9318C13.3653 8.52699 16.6228 7.20483 20.0719 7.20483C26.7114 7.20483 32.2204 12.1485 33.1114 18.5485C34.6539 17.7629 36.3689 17.3509 38.1222 17.3509C44.2156 17.3509 49.1689 22.3042 49.1689 28.3976C49.1689 29.9881 48.8431 31.5114 48.1916 32.9485C47.8659 33.6671 47.0132 33.9929 46.285 33.6671C45.5665 33.3414 45.2407 32.4887 45.5665 31.7605C46.0455 30.697 46.285 29.5665 46.285 28.3976C46.285 23.8851 42.6156 20.2252 38.1126 20.2252C36.1198 20.2252 34.2036 20.9533 32.709 22.2659C32.2683 22.6491 31.6455 22.7354 31.1186 22.4767C30.5916 22.218 30.285 21.6719 30.3234 21.0875C30.3425 20.8384 30.3521 20.5988 30.3521 20.3689C30.3521 14.6971 25.7341 10.0791 20.0623 10.0791C14.4575 10.0791 9.94492 14.4671 9.78204 20.0623C9.76288 20.6851 9.3509 21.2216 8.75689 21.4036C5.30779 22.4192 2.89342 25.6479 2.89342 29.2408C2.89342 30.1701 3.04671 31.0707 3.3533 31.9426C3.61198 32.6899 3.21917 33.5138 2.47186 33.7725C2.31857 33.8396 2.16528 33.8683 2.0024 33.8683Z"
              fill="black"/>
        <path d="M47.7413 29.8444C46.9461 29.8444 46.3042 29.2025 46.3042 28.4072C46.3042 23.8947 42.6347 20.2348 38.1317 20.2348C34.8743 20.2348 31.9234 22.1701 30.6299 25.1593C30.3138 25.8875 29.4707 26.2228 28.7425 25.9066C28.0144 25.5905 27.679 24.7474 27.9952 24.0192C29.7485 19.9761 33.7341 17.3701 38.1317 17.3701C44.2252 17.3701 49.1784 22.3234 49.1784 28.4168C49.1784 29.2025 48.5365 29.8444 47.7413 29.8444ZM1.46587 30.6875C0.670664 30.6875 0.0287476 30.0456 0.0287476 29.2504C0.0287476 23.1569 4.98204 18.2037 11.0755 18.2037C13.0779 18.2037 15.0419 18.7498 16.7569 19.7749C17.4371 20.1869 17.6575 21.0683 17.2455 21.7486C16.8335 22.4288 15.9521 22.6492 15.2719 22.2372C14.0072 21.4803 12.5605 21.0779 11.0755 21.0779C6.56288 21.0779 2.903 24.7474 2.903 29.2504C2.903 30.0456 2.26108 30.6875 1.46587 30.6875Z"
              fill="black"/>
        <path d="M43.4587 21.2311C43.2192 21.2311 42.9797 21.1736 42.7593 21.0491C42.0695 20.6659 41.8108 19.7844 42.2036 19.0946C42.7785 18.0694 43.0755 16.891 43.0755 15.7126C43.0755 11.8611 39.9425 8.72813 36.091 8.72813C33.4851 8.72813 31.109 10.1653 29.9018 12.4742C29.5377 13.1736 28.6659 13.4515 27.9665 13.0778C27.2671 12.7138 26.9892 11.8419 27.3629 11.1425C29.0683 7.88502 32.4216 5.85388 36.1006 5.85388C41.533 5.85388 45.9593 10.2802 45.9593 15.7126C45.9593 17.3892 45.5282 19.0371 44.7234 20.4934C44.5965 20.7171 44.4126 20.9032 44.1905 21.0328C43.9684 21.1623 43.7159 21.2308 43.4587 21.2311Z"
              fill="black"/>
        <path d="M39.0611 9.1785C38.8886 9.1785 38.7258 9.14976 38.5533 9.0827C37.806 8.80485 37.4323 7.97132 37.7198 7.23359C39.0132 3.80365 41.8874 1.12102 45.394 0.0671255C46.1509 -0.162815 46.9557 0.268323 47.1856 1.02521C47.4156 1.7821 46.9844 2.58689 46.2275 2.81683C43.5641 3.62162 41.3988 5.64317 40.412 8.24916C40.1916 8.82401 39.6359 9.1785 39.0611 9.1785ZM24.5269 64.0001C23.7317 64.0001 23.0898 63.3581 23.0898 62.5629V38.745C23.0898 37.9498 23.7317 37.3078 24.5269 37.3078C25.3222 37.3078 25.9641 37.9498 25.9641 38.745V62.5629C25.9641 63.3581 25.3222 64.0001 24.5269 64.0001ZM32.3162 64.0001C32.2683 64.0001 32.2204 64.0001 32.1629 63.9905C31.3772 63.9043 30.8024 63.2049 30.879 62.4096L33.3701 38.4863C33.4563 37.7007 34.1557 37.1258 34.9509 37.2025C35.7365 37.2887 36.3114 37.9881 36.2347 38.7833L33.7437 62.7066C33.6671 63.454 33.0443 64.0001 32.3162 64.0001ZM17.0635 64.0001C16.3353 64.0001 15.7126 63.4539 15.6359 62.7162L13.1449 38.8983C13.0587 38.1126 13.6335 37.4037 14.4287 37.3174C15.2144 37.2312 15.9234 37.806 16.0096 38.6013L18.491 62.4192C18.5772 63.2048 18.0024 63.9138 17.2072 64.0001H17.0635Z"
              fill="black"/>
        <path d="M9.87787 26.5198C9.87787 27.028 10.0797 27.5154 10.4391 27.8747C10.7985 28.2341 11.2858 28.436 11.794 28.436C12.3022 28.436 12.7896 28.2341 13.149 27.8747C13.5083 27.5154 13.7102 27.028 13.7102 26.5198C13.7102 26.0116 13.5083 25.5242 13.149 25.1649C12.7896 24.8055 12.3022 24.6036 11.794 24.6036C11.2858 24.6036 10.7985 24.8055 10.4391 25.1649C10.0797 25.5242 9.87787 26.0116 9.87787 26.5198Z"
              fill="black"/>
        <path d="M18.8839 15.885C18.8839 16.3932 19.0857 16.8806 19.4451 17.24C19.8044 17.5993 20.2918 17.8012 20.8 17.8012C21.3082 17.8012 21.7956 17.5993 22.155 17.24C22.5143 16.8806 22.7162 16.3932 22.7162 15.885C22.7162 15.3768 22.5143 14.8895 22.155 14.5301C21.7956 14.1708 21.3082 13.9689 20.8 13.9689C20.2918 13.9689 19.8044 14.1708 19.4451 14.5301C19.0857 14.8895 18.8839 15.3768 18.8839 15.885Z"
              fill="black"/>
        <path d="M35.9377 26.0023C35.9377 26.5105 36.1396 26.9979 36.499 27.3573C36.8583 27.7166 37.3457 27.9185 37.8539 27.9185C38.3621 27.9185 38.8495 27.7166 39.2088 27.3573C39.5682 26.9979 39.7701 26.5105 39.7701 26.0023C39.7701 25.4941 39.5682 25.0068 39.2088 24.6474C38.8495 24.2881 38.3621 24.0862 37.8539 24.0862C37.3457 24.0862 36.8583 24.2881 36.499 24.6474C36.1396 25.0068 35.9377 25.4941 35.9377 26.0023Z"
              fill="black"/>
        <path d="M21.3749 24.9485C21.3749 25.4567 21.5768 25.9441 21.9361 26.3035C22.2955 26.6628 22.7828 26.8647 23.291 26.8647C23.7992 26.8647 24.2866 26.6628 24.646 26.3035C25.0053 25.9441 25.2072 25.4567 25.2072 24.9485C25.2072 24.4403 25.0053 23.9529 24.646 23.5936C24.2866 23.2342 23.7992 23.0323 23.291 23.0323C22.7828 23.0323 22.2955 23.2342 21.9361 23.5936C21.5768 23.9529 21.3749 24.4403 21.3749 24.9485Z"
              fill="black"/>
    </g>
    <defs>
        <clipPath id="clip0_12_777">
            <rect width="49.2455" height="64" fill="white"/>
        </clipPath>
    </defs>
</svg>
