<svg width="42" height="64" viewBox="0 0 42 64" fill="none" xmlns="http://www.w3.org/2000/svg">
    <g clip-path="url(#clip0_11_401)">
        <path d="M20.744 37.5982C20.1769 37.5982 19.7171 38.0622 19.7171 38.6349V58.54C19.7171 59.1126 20.1769 59.5767 20.744 59.5767C21.3112 59.5767 21.771 59.1126 21.771 58.54V38.6349C21.771 38.0622 21.3112 37.5982 20.744 37.5982Z"
              fill="black"/>
        <path d="M41.4881 18.7302C41.4881 16.939 40.0446 15.4818 38.2704 15.4818H21.771V10.5887C21.771 9.23222 22.5691 8.01029 23.8042 7.47589L36.4841 1.98988C37.0053 1.7643 37.2469 1.15485 37.0234 0.62861C36.7999 0.102236 36.1962 -0.14146 35.675 0.0841284L22.9951 5.57014C21.0038 6.43158 19.7171 8.40147 19.7171 10.5887V15.4818H3.21772C1.44346 15.4818 0 16.939 0 18.7302C0 20.1915 0.960935 21.4302 2.27842 21.837L6.26826 60.1017C6.49994 62.3241 8.34404 64 10.5577 64H30.9303C33.1439 64 34.988 62.3241 35.2197 60.1017L39.2095 21.837C40.5272 21.4302 41.4881 20.1915 41.4881 18.7302ZM19.7171 33.0902C19.2781 33.0059 18.9547 32.8665 18.5845 32.7062C17.8949 32.4076 17.1135 32.0694 15.6255 32.0694C14.1377 32.0694 13.3563 32.4076 12.6669 32.7062C12.0618 32.9683 11.5838 33.1752 10.5178 33.1752C9.45148 33.1752 8.97334 32.9683 8.368 32.7062C7.67872 32.4077 6.89757 32.0696 5.41084 32.0694L4.35872 21.9787H19.7174V33.0902H19.7171ZM33.1769 59.8847C33.0556 61.0488 32.0896 61.9266 30.9301 61.9266H10.5574C9.39794 61.9266 8.43194 61.0487 8.31063 59.8847L5.62691 34.1461C6.5428 34.1728 6.99602 34.3684 7.55823 34.6118C8.24778 34.9102 9.02934 35.2485 10.5174 35.2485C12.0054 35.2485 12.7867 34.9102 13.4761 34.6117C14.0812 34.3496 14.5592 34.1427 15.6251 34.1427C16.6914 34.1427 17.1694 34.3496 17.7746 34.6117C18.4641 34.9102 19.2455 35.2485 20.7335 35.2485C20.7369 35.2485 20.7401 35.2483 20.7435 35.2483H20.7436C20.7438 35.2483 20.7438 35.2483 20.7439 35.2483C22.226 35.2467 23.006 34.9095 23.6944 34.6118C24.3002 34.3497 24.7788 34.1427 25.8463 34.1427C26.9148 34.1427 27.3938 34.3497 28.0002 34.6119C28.6906 34.9104 29.4728 35.2485 30.9626 35.2485C32.4523 35.2485 33.2347 34.9104 33.9251 34.6119C34.4884 34.3685 34.9424 34.1728 35.8604 34.1461L33.1769 59.8847ZM38.2701 19.9051H34.9842C34.417 19.9051 33.9573 20.3692 33.9573 20.9418C33.9573 21.5145 34.417 21.9785 34.9842 21.9785H37.1292L36.0771 32.0692C34.5887 32.0695 33.8068 32.4075 33.1168 32.7058C32.5104 32.9678 32.0313 33.175 30.9629 33.175C29.8944 33.175 29.4153 32.968 28.8089 32.7058C28.1185 32.4073 27.3361 32.0692 25.8464 32.0692C24.3573 32.0692 23.5755 32.4075 22.8855 32.7059C22.5202 32.8639 22.2004 33.0014 21.7707 33.0862V21.9785H24.0302C24.5974 21.9785 25.0572 21.5145 25.0572 20.9418C25.0572 20.3692 24.5974 19.9051 24.0302 19.9051H3.21745C2.57569 19.9051 2.05359 19.3781 2.05359 18.7302C2.05359 18.0823 2.57569 17.5552 3.21745 17.5552H38.2701C38.9119 17.5552 39.434 18.0823 39.434 18.7302C39.434 19.3781 38.9119 19.9051 38.2701 19.9051Z"
              fill="black"/>
        <path d="M30.6029 19.9052H28.4117C27.8446 19.9052 27.3848 20.3692 27.3848 20.9419C27.3848 21.5145 27.8446 21.9786 28.4117 21.9786H30.6029C31.17 21.9786 31.6298 21.5145 31.6298 20.9419C31.6298 20.3692 31.1702 19.9052 30.6029 19.9052Z"
              fill="black"/>
    </g>
    <defs>
        <clipPath id="clip0_11_401">
            <rect width="42" height="64" fill="white"/>
        </clipPath>
    </defs>
</svg>
