<svg width="42" height="40" viewBox="0 0 42 40" fill="none" xmlns="http://www.w3.org/2000/svg">
    <path d="M20.5643 10.0173C15.0434 10.0173 10.5903 14.4704 10.5903 19.9912C10.5903 25.5121 15.0434 29.9652 20.5643 29.9652C26.0851 29.9652 30.5382 25.5121 30.5382 19.9912C30.5382 14.4704 26.0851 10.0173 20.5643 10.0173ZM20.5643 26.4756C16.9965 26.4756 14.0799 23.5676 14.0799 19.9912C14.0799 16.4148 16.9879 13.5069 20.5643 13.5069C24.1406 13.5069 27.0486 16.4148 27.0486 19.9912C27.0486 23.5676 24.132 26.4756 20.5643 26.4756ZM33.2726 9.60929C33.2726 10.9027 32.2309 11.9357 30.9462 11.9357C29.6528 11.9357 28.6198 10.894 28.6198 9.60929C28.6198 8.32457 29.6615 7.2829 30.9462 7.2829C32.2309 7.2829 33.2726 8.32457 33.2726 9.60929ZM39.8785 11.9704C39.7309 8.85408 39.0191 6.09367 36.7361 3.81936C34.4618 1.54506 31.7014 0.833252 28.5851 0.677002C25.3733 0.49471 15.7465 0.49471 12.5347 0.677002C9.4271 0.824571 6.66668 1.53638 4.38369 3.81068C2.10071 6.08499 1.39758 8.8454 1.24133 11.9617C1.05904 15.1735 1.05904 24.8003 1.24133 28.0121C1.3889 31.1284 2.10071 33.8888 4.38369 36.1631C6.66668 38.4374 9.41842 39.1492 12.5347 39.3055C15.7465 39.4878 25.3733 39.4878 28.5851 39.3055C31.7014 39.1579 34.4618 38.4461 36.7361 36.1631C39.0104 33.8888 39.7222 31.1284 39.8785 28.0121C40.0608 24.8003 40.0608 15.1822 39.8785 11.9704ZM35.7292 31.4583C35.0521 33.1596 33.7413 34.4704 32.0313 35.1562C29.4705 36.1718 23.3941 35.9374 20.5643 35.9374C17.7344 35.9374 11.6493 36.1631 9.09724 35.1562C7.39585 34.4791 6.08508 33.1683 5.39932 31.4583C4.38369 28.8975 4.61807 22.8211 4.61807 19.9912C4.61807 17.1614 4.39237 11.0763 5.39932 8.52422C6.0764 6.82283 7.38717 5.51207 9.09724 4.82631C11.658 3.81068 17.7344 4.04506 20.5643 4.04506C23.3941 4.04506 29.4792 3.81936 32.0313 4.82631C33.7327 5.50339 35.0434 6.81415 35.7292 8.52422C36.7448 11.085 36.5104 17.1614 36.5104 19.9912C36.5104 22.8211 36.7448 28.9062 35.7292 31.4583Z"
          fill="black"/>
</svg>
