<svg width="109" height="37" viewBox="0 0 109 37" fill="none" xmlns="http://www.w3.org/2000/svg">
    <path d="M0.952 10.176C1.41867 10.1947 2.044 10.2133 2.828 10.232C3.63067 10.2507 4.424 10.26 5.208 10.26C6.104 10.26 6.972 10.2507 7.812 10.232C8.652 10.2133 9.24933 10.204 9.604 10.204C12.1987 10.204 14.14 10.7173 15.428 11.744C16.716 12.7707 17.36 14.096 17.36 15.72C17.36 16.392 17.2293 17.1013 16.968 17.848C16.7067 18.576 16.2587 19.2573 15.624 19.892C15.008 20.508 14.1587 21.012 13.076 21.404C11.9933 21.796 10.6307 21.992 8.988 21.992H6.132V21.432H8.708C9.80933 21.432 10.64 21.18 11.2 20.676C11.7787 20.172 12.1707 19.5093 12.376 18.688C12.6 17.8667 12.712 16.98 12.712 16.028C12.712 14.2547 12.4507 12.9293 11.928 12.052C11.4053 11.1747 10.5093 10.736 9.24 10.736C8.512 10.736 8.036 10.8947 7.812 11.212C7.60667 11.5293 7.504 12.1733 7.504 13.144V26.864C7.504 27.592 7.57867 28.1333 7.728 28.488C7.87733 28.8427 8.16667 29.076 8.596 29.188C9.02533 29.3 9.66 29.3653 10.5 29.384V30C9.92133 29.9813 9.17467 29.9627 8.26 29.944C7.34533 29.9253 6.384 29.916 5.376 29.916C4.57333 29.916 3.78933 29.9253 3.024 29.944C2.25867 29.9627 1.568 29.9813 0.952 30V29.44C1.54933 29.4027 1.99733 29.328 2.296 29.216C2.59467 29.104 2.79067 28.88 2.884 28.544C2.996 28.208 3.052 27.704 3.052 27.032V13.144C3.052 12.4533 2.996 11.9493 2.884 11.632C2.79067 11.296 2.58533 11.072 2.268 10.96C1.96933 10.8293 1.53067 10.7547 0.952 10.736V10.176ZM22.2495 8.3C23.0335 8.3 23.6495 8.496 24.0975 8.888C24.5642 9.26133 24.7975 9.784 24.7975 10.456C24.7975 11.128 24.5642 11.66 24.0975 12.052C23.6495 12.4253 23.0335 12.612 22.2495 12.612C21.4655 12.612 20.8402 12.4253 20.3735 12.052C19.9255 11.66 19.7015 11.128 19.7015 10.456C19.7015 9.784 19.9255 9.26133 20.3735 8.888C20.8402 8.496 21.4655 8.3 22.2495 8.3ZM24.4335 15.216V27.396C24.4335 28.18 24.5642 28.712 24.8255 28.992C25.1055 29.272 25.5722 29.412 26.2255 29.412V30C25.8895 29.9813 25.3668 29.9627 24.6575 29.944C23.9482 29.9067 23.2295 29.888 22.5015 29.888C21.7735 29.888 21.0362 29.9067 20.2895 29.944C19.5428 29.9627 18.9828 29.9813 18.6095 30V29.412C19.2628 29.412 19.7202 29.272 19.9815 28.992C20.2615 28.712 20.4015 28.18 20.4015 27.396V18.576C20.4015 17.736 20.2708 17.12 20.0095 16.728C19.7668 16.3173 19.3002 16.112 18.6095 16.112V15.524C19.2068 15.58 19.7855 15.608 20.3455 15.608C21.1295 15.608 21.8575 15.58 22.5295 15.524C23.2202 15.4493 23.8548 15.3467 24.4335 15.216ZM39.2015 15.384L32.2015 29.58H33.6575C34.3855 29.58 35.0669 29.4307 35.7015 29.132C36.3549 28.8147 36.8962 28.292 37.3255 27.564C37.7735 26.836 38.0442 25.8373 38.1375 24.568H38.7255C38.7255 25.9307 38.7349 27.0507 38.7535 27.928C38.7722 28.7867 38.8002 29.5147 38.8375 30.112C37.9975 30.0747 37.1202 30.0467 36.2055 30.028C35.2909 30.0093 34.3762 30 33.4615 30C32.5095 30 31.5295 30.0093 30.5215 30.028C29.5135 30.0653 28.5522 30.1027 27.6375 30.14L34.6375 15.944H33.0695C32.3229 15.944 31.6322 16.1027 30.9975 16.42C30.3815 16.7187 29.8682 17.2413 29.4575 17.988C29.0655 18.716 28.8135 19.7053 28.7015 20.956H28.1135C28.1135 19.5747 28.1042 18.4547 28.0855 17.596C28.0669 16.7373 28.0389 16.0093 28.0015 15.412C28.8602 15.4493 29.7469 15.4773 30.6615 15.496C31.5762 15.5147 32.4815 15.524 33.3775 15.524C34.3482 15.524 35.3282 15.5147 36.3175 15.496C37.3255 15.4587 38.2869 15.4213 39.2015 15.384ZM52.4633 15.384L45.4633 29.58H46.9193C47.6473 29.58 48.3286 29.4307 48.9633 29.132C49.6166 28.8147 50.1579 28.292 50.5873 27.564C51.0353 26.836 51.3059 25.8373 51.3993 24.568H51.9873C51.9873 25.9307 51.9966 27.0507 52.0153 27.928C52.0339 28.7867 52.0619 29.5147 52.0993 30.112C51.2593 30.0747 50.3819 30.0467 49.4673 30.028C48.5526 30.0093 47.6379 30 46.7233 30C45.7713 30 44.7913 30.0093 43.7833 30.028C42.7753 30.0653 41.8139 30.1027 40.8993 30.14L47.8993 15.944H46.3313C45.5846 15.944 44.8939 16.1027 44.2593 16.42C43.6433 16.7187 43.1299 17.2413 42.7193 17.988C42.3273 18.716 42.0753 19.7053 41.9633 20.956H41.3753C41.3753 19.5747 41.3659 18.4547 41.3473 17.596C41.3286 16.7373 41.3006 16.0093 41.2633 15.412C42.1219 15.4493 43.0086 15.4773 43.9233 15.496C44.8379 15.5147 45.7433 15.524 46.6393 15.524C47.6099 15.524 48.5899 15.5147 49.5793 15.496C50.5873 15.4587 51.5486 15.4213 52.4633 15.384ZM57.829 30.196C56.989 30.196 56.289 30.0373 55.729 29.72C55.169 29.4027 54.7583 28.9827 54.497 28.46C54.2356 27.9187 54.105 27.3307 54.105 26.696C54.105 25.8933 54.2823 25.24 54.637 24.736C55.0103 24.232 55.4863 23.8213 56.065 23.504C56.6436 23.1867 57.2503 22.9253 57.885 22.72C58.5383 22.5147 59.1543 22.3187 59.733 22.132C60.3303 21.9267 60.8063 21.6933 61.161 21.432C61.5343 21.152 61.721 20.7973 61.721 20.368V18.184C61.721 17.6987 61.637 17.2693 61.469 16.896C61.3196 16.504 61.077 16.2053 60.741 16C60.4236 15.7947 60.0036 15.692 59.481 15.692C59.1076 15.692 58.7343 15.748 58.361 15.86C57.9876 15.9533 57.6796 16.1213 57.437 16.364C57.9596 16.5507 58.361 16.84 58.641 17.232C58.9396 17.6053 59.089 18.0347 59.089 18.52C59.089 19.1547 58.865 19.6587 58.417 20.032C57.9876 20.4053 57.4743 20.592 56.877 20.592C56.205 20.592 55.6916 20.3867 55.337 19.976C55.001 19.5467 54.833 19.0333 54.833 18.436C54.833 17.8947 54.9636 17.4467 55.225 17.092C55.505 16.7373 55.8876 16.4013 56.373 16.084C56.8956 15.7853 57.521 15.552 58.249 15.384C58.9956 15.216 59.7983 15.132 60.657 15.132C61.5156 15.132 62.2903 15.2253 62.981 15.412C63.6716 15.58 64.2503 15.8973 64.717 16.364C65.1463 16.7933 65.4263 17.3253 65.557 17.96C65.6876 18.576 65.753 19.36 65.753 20.312V27.928C65.753 28.3947 65.7996 28.7213 65.893 28.908C65.9863 29.076 66.145 29.16 66.369 29.16C66.537 29.16 66.6956 29.1133 66.845 29.02C67.013 28.9267 67.1903 28.8147 67.377 28.684L67.657 29.16C67.265 29.496 66.8076 29.7573 66.285 29.944C65.781 30.112 65.2116 30.196 64.577 30.196C63.8863 30.196 63.3356 30.1027 62.925 29.916C62.5143 29.7107 62.2156 29.44 62.029 29.104C61.861 28.768 61.777 28.376 61.777 27.928C61.329 28.6373 60.7876 29.1973 60.153 29.608C59.5183 30 58.7436 30.196 57.829 30.196ZM59.817 28.404C60.1903 28.404 60.5263 28.32 60.825 28.152C61.1423 27.9653 61.441 27.6667 61.721 27.256V21.516C61.553 21.796 61.3196 22.048 61.021 22.272C60.7223 22.496 60.405 22.7293 60.069 22.972C59.733 23.196 59.4063 23.448 59.089 23.728C58.7903 24.008 58.5476 24.3533 58.361 24.764C58.1743 25.1747 58.081 25.6693 58.081 26.248C58.081 26.976 58.2396 27.5173 58.557 27.872C58.8743 28.2267 59.2943 28.404 59.817 28.404ZM68.7372 10.176C69.2038 10.1947 69.8292 10.2133 70.6132 10.232C71.4158 10.2507 72.2092 10.26 72.9932 10.26C73.8892 10.26 74.7572 10.2507 75.5972 10.232C76.4372 10.2133 77.0345 10.204 77.3892 10.204C79.9838 10.204 81.9252 10.7173 83.2132 11.744C84.5012 12.7707 85.1452 14.096 85.1452 15.72C85.1452 16.392 85.0145 17.1013 84.7532 17.848C84.4918 18.576 84.0438 19.2573 83.4092 19.892C82.7932 20.508 81.9438 21.012 80.8612 21.404C79.7785 21.796 78.4158 21.992 76.7732 21.992H73.9172V21.432H76.4932C77.5945 21.432 78.4252 21.18 78.9852 20.676C79.5638 20.172 79.9558 19.5093 80.1612 18.688C80.3852 17.8667 80.4972 16.98 80.4972 16.028C80.4972 14.2547 80.2358 12.9293 79.7132 12.052C79.1905 11.1747 78.2945 10.736 77.0252 10.736C76.2972 10.736 75.8212 10.8947 75.5972 11.212C75.3918 11.5293 75.2892 12.1733 75.2892 13.144V26.864C75.2892 27.592 75.3638 28.1333 75.5132 28.488C75.6625 28.8427 75.9518 29.076 76.3812 29.188C76.8105 29.3 77.4452 29.3653 78.2852 29.384V30C77.7065 29.9813 76.9598 29.9627 76.0452 29.944C75.1305 29.9253 74.1692 29.916 73.1612 29.916C72.3585 29.916 71.5745 29.9253 70.8092 29.944C70.0438 29.9627 69.3532 29.9813 68.7372 30V29.44C69.3345 29.4027 69.7825 29.328 70.0812 29.216C70.3798 29.104 70.5758 28.88 70.6692 28.544C70.7812 28.208 70.8372 27.704 70.8372 27.032V13.144C70.8372 12.4533 70.7812 11.9493 70.6692 11.632C70.5758 11.296 70.3705 11.072 70.0532 10.96C69.7545 10.8293 69.3158 10.7547 68.7372 10.736V10.176ZM89.9305 30.196C89.0905 30.196 88.3905 30.0373 87.8305 29.72C87.2705 29.4027 86.8599 28.9827 86.5985 28.46C86.3372 27.9187 86.2065 27.3307 86.2065 26.696C86.2065 25.8933 86.3839 25.24 86.7385 24.736C87.1119 24.232 87.5879 23.8213 88.1665 23.504C88.7452 23.1867 89.3519 22.9253 89.9865 22.72C90.6399 22.5147 91.2559 22.3187 91.8345 22.132C92.4319 21.9267 92.9079 21.6933 93.2625 21.432C93.6359 21.152 93.8225 20.7973 93.8225 20.368V18.184C93.8225 17.6987 93.7385 17.2693 93.5705 16.896C93.4212 16.504 93.1785 16.2053 92.8425 16C92.5252 15.7947 92.1052 15.692 91.5825 15.692C91.2092 15.692 90.8359 15.748 90.4625 15.86C90.0892 15.9533 89.7812 16.1213 89.5385 16.364C90.0612 16.5507 90.4625 16.84 90.7425 17.232C91.0412 17.6053 91.1905 18.0347 91.1905 18.52C91.1905 19.1547 90.9665 19.6587 90.5185 20.032C90.0892 20.4053 89.5759 20.592 88.9785 20.592C88.3065 20.592 87.7932 20.3867 87.4385 19.976C87.1025 19.5467 86.9345 19.0333 86.9345 18.436C86.9345 17.8947 87.0652 17.4467 87.3265 17.092C87.6065 16.7373 87.9892 16.4013 88.4745 16.084C88.9972 15.7853 89.6225 15.552 90.3505 15.384C91.0972 15.216 91.8999 15.132 92.7585 15.132C93.6172 15.132 94.3919 15.2253 95.0825 15.412C95.7732 15.58 96.3519 15.8973 96.8185 16.364C97.2479 16.7933 97.5279 17.3253 97.6585 17.96C97.7892 18.576 97.8545 19.36 97.8545 20.312V27.928C97.8545 28.3947 97.9012 28.7213 97.9945 28.908C98.0879 29.076 98.2465 29.16 98.4705 29.16C98.6385 29.16 98.7972 29.1133 98.9465 29.02C99.1145 28.9267 99.2919 28.8147 99.4785 28.684L99.7585 29.16C99.3665 29.496 98.9092 29.7573 98.3865 29.944C97.8825 30.112 97.3132 30.196 96.6785 30.196C95.9879 30.196 95.4372 30.1027 95.0265 29.916C94.6159 29.7107 94.3172 29.44 94.1305 29.104C93.9625 28.768 93.8785 28.376 93.8785 27.928C93.4305 28.6373 92.8892 29.1973 92.2545 29.608C91.6199 30 90.8452 30.196 89.9305 30.196ZM91.9185 28.404C92.2919 28.404 92.6279 28.32 92.9265 28.152C93.2439 27.9653 93.5425 27.6667 93.8225 27.256V21.516C93.6545 21.796 93.4212 22.048 93.1225 22.272C92.8239 22.496 92.5065 22.7293 92.1705 22.972C91.8345 23.196 91.5079 23.448 91.1905 23.728C90.8919 24.008 90.6492 24.3533 90.4625 24.764C90.2759 25.1747 90.1825 25.6693 90.1825 26.248C90.1825 26.976 90.3412 27.5173 90.6585 27.872C90.9759 28.2267 91.3959 28.404 91.9185 28.404ZM106.271 8.076V27.396C106.271 28.18 106.401 28.712 106.663 28.992C106.943 29.272 107.409 29.412 108.063 29.412V30C107.708 29.9813 107.176 29.9627 106.467 29.944C105.757 29.9067 105.039 29.888 104.311 29.888C103.583 29.888 102.845 29.9067 102.099 29.944C101.371 29.9627 100.82 29.9813 100.447 30V29.412C101.1 29.412 101.557 29.272 101.819 28.992C102.099 28.712 102.239 28.18 102.239 27.396V11.436C102.239 10.596 102.108 9.98 101.847 9.588C101.604 9.17733 101.137 8.972 100.447 8.972V8.384C101.044 8.44 101.623 8.468 102.183 8.468C102.948 8.468 103.676 8.44 104.367 8.384C105.057 8.30933 105.692 8.20667 106.271 8.076Z"
          fill="black"/>
</svg>
