<svg width="48" height="32" viewBox="0 0 48 32" fill="none" xmlns="http://www.w3.org/2000/svg">
<path d="M5.33333 0C2.39167 0 0 2.39167 0 5.33333V26.6667C0 29.6083 2.39167 32 5.33333 32H42.6667C45.6083 32 48 29.6083 48 26.6667V5.33333C48 2.39167 45.6083 0 42.6667 0H5.33333ZM10.6667 26.6667H5.33333V21.3333C8.275 21.3333 10.6667 23.725 10.6667 26.6667ZM5.33333 10.6667V5.33333H10.6667C10.6667 8.275 8.275 10.6667 5.33333 10.6667ZM37.3333 26.6667C37.3333 23.725 39.725 21.3333 42.6667 21.3333V26.6667H37.3333ZM42.6667 10.6667C39.725 10.6667 37.3333 8.275 37.3333 5.33333H42.6667V10.6667ZM24 8C26.1217 8 28.1566 8.84286 29.6569 10.3431C31.1571 11.8434 32 13.8783 32 16C32 18.1217 31.1571 20.1566 29.6569 21.6569C28.1566 23.1571 26.1217 24 24 24C21.8783 24 19.8434 23.1571 18.3431 21.6569C16.8429 20.1566 16 18.1217 16 16C16 13.8783 16.8429 11.8434 18.3431 10.3431C19.8434 8.84286 21.8783 8 24 8Z" fill="black"/>
</svg>
