<svg width="48" height="32" viewBox="0 0 42 32" fill="none" xmlns="http://www.w3.org/2000/svg">
<path d="M4.57143 0C2.05 0 0 2.05 0 4.57143V6.85714H41.1429V4.57143C41.1429 2.05 39.0929 0 36.5714 0H4.57143ZM41.1429 13.7143H0V27.4286C0 29.95 2.05 32 4.57143 32H36.5714C39.0929 32 41.1429 29.95 41.1429 27.4286V13.7143ZM8 22.8571H12.5714C13.2 22.8571 13.7143 23.3714 13.7143 24C13.7143 24.6286 13.2 25.1429 12.5714 25.1429H8C7.37143 25.1429 6.85714 24.6286 6.85714 24C6.85714 23.3714 7.37143 22.8571 8 22.8571ZM16 24C16 23.3714 16.5143 22.8571 17.1429 22.8571H26.2857C26.9143 22.8571 27.4286 23.3714 27.4286 24C27.4286 24.6286 26.9143 25.1429 26.2857 25.1429H17.1429C16.5143 25.1429 16 24.6286 16 24Z" fill="black"/>
</svg>
