<svg width="64" height="64" viewBox="0 0 64 64" fill="none" xmlns="http://www.w3.org/2000/svg">
    <g clip-path="url(#clip0_37_2250)">
        <path d="M49.875 48.025C47.1125 43.225 41.925 40 36 40H28C22.075 40 16.8875 43.225 14.125 48.025C18.525 52.925 24.9 56 32 56C39.1 56 45.475 52.9125 49.875 48.025ZM0 32C0 23.5131 3.37142 15.3737 9.37258 9.37258C15.3737 3.37142 23.5131 0 32 0C40.4869 0 48.6263 3.37142 54.6274 9.37258C60.6286 15.3737 64 23.5131 64 32C64 40.4869 60.6286 48.6263 54.6274 54.6274C48.6263 60.6286 40.4869 64 32 64C23.5131 64 15.3737 60.6286 9.37258 54.6274C3.37142 48.6263 0 40.4869 0 32ZM32 34C34.3869 34 36.6761 33.0518 38.364 31.364C40.0518 29.6761 41 27.3869 41 25C41 22.6131 40.0518 20.3239 38.364 18.636C36.6761 16.9482 34.3869 16 32 16C29.6131 16 27.3239 16.9482 25.636 18.636C23.9482 20.3239 23 22.6131 23 25C23 27.3869 23.9482 29.6761 25.636 31.364C27.3239 33.0518 29.6131 34 32 34Z"
              fill="black"/>
    </g>
    <defs>
        <clipPath id="clip0_37_2250">
            <rect width="64" height="64" fill="white"/>
        </clipPath>
    </defs>
</svg>
