<svg width="28" height="28" viewBox="0 0 28 28" fill="none" xmlns="http://www.w3.org/2000/svg">
    <g clip-path="url(#clip0_6_846)">
        <path d="M10.6247 12.0107C10.8992 12.0107 11.1216 11.7882 11.1216 11.5138C11.1216 11.2394 10.8992 11.0169 10.6247 11.0169C10.3503 11.0169 10.1279 11.2394 10.1279 11.5138C10.1279 11.7882 10.3503 12.0107 10.6247 12.0107Z" fill="#F57C00"/>
        <path d="M4.31157 15.9623C4.58599 15.9623 4.80844 15.7398 4.80844 15.4654C4.80844 15.191 4.58599 14.9685 4.31157 14.9685C4.03715 14.9685 3.8147 15.191 3.8147 15.4654C3.8147 15.7398 4.03715 15.9623 4.31157 15.9623Z" fill="#F57C00"/>
        <path d="M10.1396 20.7965C10.414 20.7965 10.6364 20.5741 10.6364 20.2997C10.6364 20.0253 10.414 19.8028 10.1396 19.8028C9.86516 19.8028 9.6427 20.0253 9.6427 20.2997C9.6427 20.5741 9.86516 20.7965 10.1396 20.7965Z" fill="#F57C00"/>
        <path d="M17.8382 16.9151C18.1126 16.9151 18.3351 16.6926 18.3351 16.4182C18.3351 16.1438 18.1126 15.9213 17.8382 15.9213C17.5638 15.9213 17.3413 16.1438 17.3413 16.4182C17.3413 16.6926 17.5638 16.9151 17.8382 16.9151Z" fill="#F57C00"/>
        <path d="M20.3108 10.105C20.5853 10.105 20.8077 9.88255 20.8077 9.60814C20.8077 9.33372 20.5853 9.11127 20.3108 9.11127C20.0364 9.11127 19.814 9.33372 19.814 9.60814C19.814 9.88255 20.0364 10.105 20.3108 10.105Z" fill="#F57C00"/>
        <path d="M23.6253 9.60813C23.8997 9.60813 24.1222 9.38567 24.1222 9.11125C24.1222 8.83684 23.8997 8.61438 23.6253 8.61438C23.3509 8.61438 23.1284 8.83684 23.1284 9.11125C23.1284 9.38567 23.3509 9.60813 23.6253 9.60813Z" fill="#F57C00"/>
        <path d="M13.0331 7.14719C13.3075 7.14719 13.53 6.92473 13.53 6.65031C13.53 6.3759 13.3075 6.15344 13.0331 6.15344C12.7587 6.15344 12.5363 6.3759 12.5363 6.65031C12.5363 6.92473 12.7587 7.14719 13.0331 7.14719Z" fill="#F57C00"/>
        <path d="M13.9687 21.2058C14.7286 21.2058 15.3424 20.5862 15.3424 19.8321C15.3424 19.0722 14.7286 18.4584 13.9687 18.4584C13.2088 18.4584 12.595 19.0722 12.595 19.8321C12.595 20.592 13.2088 21.2058 13.9687 21.2058ZM13.9687 19.3352C14.2434 19.3352 14.4655 19.5573 14.4655 19.8321C14.4655 20.1068 14.2434 20.329 13.9687 20.329C13.6939 20.329 13.4718 20.1068 13.4718 19.8321C13.4718 19.5573 13.6939 19.3352 13.9687 19.3352Z" fill="#F57C00"/>
        <path d="M7.74313 15.5239C6.69678 15.5239 5.84332 16.3774 5.84332 17.4237C5.84332 18.4701 6.69678 19.3235 7.74313 19.3235C8.78949 19.3235 9.64294 18.4759 9.64294 17.4237C9.64294 16.3774 8.78949 15.5239 7.74313 15.5239ZM7.74313 18.4467C7.18196 18.4467 6.72016 17.9849 6.72016 17.4237C6.72016 16.8626 7.18196 16.4008 7.74313 16.4008C8.3043 16.4008 8.7661 16.8626 8.7661 17.4237C8.7661 17.9849 8.3043 18.4467 7.74313 18.4467Z" fill="#F57C00"/>
        <path d="M9.39743 10.07C10.3152 10.07 11.0634 9.32177 11.0634 8.40402C11.0634 7.48627 10.3152 6.73804 9.39743 6.73804C8.47968 6.73804 7.73145 7.48627 7.73145 8.40402C7.73145 9.32177 8.47968 10.07 9.39743 10.07ZM9.39743 7.61487C9.83 7.61487 10.1866 7.97145 10.1866 8.40402C10.1866 8.83659 9.83 9.19317 9.39743 9.19317C8.96486 9.19317 8.60828 8.83659 8.60828 8.40402C8.60828 7.97145 8.96486 7.61487 9.39743 7.61487Z" fill="#F57C00"/>
        <path d="M7.13517 11.9932C7.13517 11.2333 6.52139 10.6195 5.76146 10.6195C5.00154 10.6195 4.38776 11.2333 4.38776 11.9932C4.38776 12.7531 5.00154 13.3669 5.76146 13.3669C6.52139 13.3669 7.13517 12.7531 7.13517 11.9932ZM5.76146 12.4901C5.48672 12.4901 5.26459 12.268 5.26459 11.9932C5.26459 11.7185 5.48672 11.4963 5.76146 11.4963C6.0362 11.4963 6.25834 11.7185 6.25834 11.9932C6.25834 12.268 6.0362 12.4901 5.76146 12.4901Z" fill="#F57C00"/>
        <path d="M22.9767 12.7008C22.889 12.6248 22.7721 12.5897 22.6552 12.6014L12.554 13.4665L18.8965 5.47564C19.0484 5.28858 19.0134 5.00799 18.8263 4.86185C16.7453 3.20756 14.1382 2.30734 11.4784 2.34242C8.82456 2.37165 6.23498 3.31863 4.18319 5.01968C2.13724 6.75582 0.722617 9.14665 0.214054 11.7596C-0.300356 14.3843 0.120525 17.1258 1.38901 19.4699C2.63412 21.8315 4.66837 23.7021 7.11766 24.7485C8.54398 25.3564 10.0638 25.6604 11.5778 25.6604C12.6768 25.6604 13.7758 25.4967 14.8338 25.1752C17.3942 24.4036 19.633 22.7668 21.1353 20.5747C22.6376 18.3651 23.3508 15.682 23.1286 12.9989C23.117 12.882 23.0643 12.7767 22.9767 12.7008ZM11.2329 13.7237C11.1277 13.8523 11.116 14.0394 11.1979 14.1972C11.2797 14.3492 11.4492 14.4427 11.6187 14.4252L20.3169 13.6828C20.5098 17.7279 17.9846 21.3288 14.0739 22.5038C10.0112 23.632 5.83164 21.8549 3.90845 18.1839L3.9026 18.178C1.91511 14.5889 2.73349 10.0118 5.83748 7.29945C8.99408 4.60465 13.4309 4.42344 16.6927 6.8435L11.2329 13.7237ZM14.5766 24.3334C9.77154 25.8065 4.55146 23.5852 2.16647 19.049C-0.2419 14.6064 0.845374 8.98297 4.75021 5.68023C6.72601 4.04347 9.16945 3.21925 11.6129 3.21925C13.8401 3.21925 16.0672 3.90318 17.9378 5.27104L17.248 6.14203C15.5411 4.8677 13.4309 4.20131 11.2914 4.27145C9.0993 4.3416 6.96568 5.17167 5.27046 6.62137C3.61032 8.07107 2.48213 10.0644 2.09632 12.2273C1.70467 14.4018 2.07879 16.6582 3.14268 18.5814C4.1715 20.5396 5.84917 22.0887 7.87758 22.9422C9.07008 23.4449 10.3561 23.7021 11.6538 23.7021C12.5482 23.7021 13.4426 23.5793 14.3194 23.3397C14.3252 23.3397 14.3252 23.3397 14.3252 23.3397C16.4296 22.7084 18.2768 21.3639 19.5161 19.5517C20.7086 17.8156 21.299 15.7112 21.1938 13.601L22.2869 13.5074C22.4915 18.4703 19.3758 22.8837 14.5766 24.3334Z" fill="#F57C00"/>
        <path d="M27.998 10.5026C27.6999 7.3752 26.1332 4.44073 23.7015 2.44154C23.608 2.36555 23.4911 2.33048 23.3741 2.34217C23.2572 2.35386 23.152 2.41232 23.076 2.50584L16.1023 11.2976C15.9912 11.4379 15.9795 11.6249 16.0613 11.7769C16.1373 11.9172 16.2893 12.0049 16.4472 12.0049C16.4588 12.0049 16.4764 12.0049 16.4881 12.0049L27.6005 10.9819C27.7174 10.9702 27.8226 10.9176 27.8986 10.8241C27.9687 10.7364 28.0097 10.6195 27.998 10.5026ZM21.2756 6.6445C21.5503 6.6445 21.7725 6.86663 21.7725 7.14137C21.7725 7.41611 21.5503 7.63825 21.2756 7.63825C21.0008 7.63825 20.7787 7.41611 20.7787 7.14137C20.7787 6.86663 21.0008 6.6445 21.2756 6.6445ZM17.4351 11.0404L20.0422 7.74347C20.2643 8.19942 20.7319 8.51508 21.2756 8.51508C22.0355 8.51508 22.6493 7.9013 22.6493 7.14137C22.6493 6.48667 22.1933 5.94304 21.5854 5.80274L22.2576 4.96098C23.8184 6.35807 24.8005 8.20527 25.122 10.3331L17.4351 11.0404ZM25.993 10.2512C25.6481 7.87792 24.5491 5.82612 22.8013 4.2712L23.4794 3.41191C25.4318 5.15388 26.7178 7.5681 27.0685 10.1518L25.993 10.2512Z" fill="#F57C00"/>
    </g>
    <defs>
        <clipPath id="clip0_6_846">
            <rect width="28" height="24" fill="white" transform="translate(0 2)"/>
        </clipPath>
    </defs>
</svg>
